<?xml version="1.0" encoding="utf-8"?> <!-- Generator: IcoMoon.io --> <!DOCTYPE svg PUBLIC "-//W3C//DTD SVG 1.1//EN" "http://www.w3.org/Graphics/SVG/1.1/DTD/svg11.dtd"> <svg width="128" height="128" viewBox="0 0 128 128" xmlns="http://www.w3.org/2000/svg" xmlns:xlink="http://www.w3.org/1999/xlink" fill="#000000"><g><path d="M 64,103.987c-2.394,0-4.788-1.24-7.268-3.719c-0.976-0.976-0.976-2.559,0-3.536c 0.976-0.976, 2.559-0.976, 3.536,0 C 61.794,98.258, 63.014,99, 64,99c 0.985,0, 2.206-0.742, 3.732-2.268c 0.977-0.976, 2.559-0.976, 3.536,0 c 0.976,0.976, 0.976,2.559,0,3.536C 68.788,102.747, 66.394,103.987, 64,103.987zM 0,65.686 C 0,71.923 0.533,77.577 1.6,82.647 C 2.667,87.717 4.167,92.114 6.1,95.838 C 8.033,99.562 10.478,102.826 13.433,105.631 C 16.389,108.435 19.6,110.746 23.067,112.563 C 26.533,114.38 30.5,115.85 34.967,116.971 C 39.433,118.093 43.977,118.878 48.6,119.327 C 53.222,119.776 58.311,120 63.867,120 C 69.422,120 74.522,119.776 79.166,119.328 C 83.811,118.879 88.367,118.094 92.833,116.972 C 97.299,115.85 101.278,114.38 104.766,112.564 C 108.255,110.746 111.489,108.435 114.466,105.631 C 117.444,102.827 119.9,99.563 121.833,95.839 C 123.766,92.115 125.278,87.717 126.367,82.647 C 127.455,77.577 128,71.924 128,65.687 C 128,54.515 124.533,44.891 117.6,36.815 C 118,35.737 118.344,34.504 118.633,33.113 C 118.921,31.722 119.2,29.759 119.466,27.224 C 119.733,24.689 119.633,21.761 119.166,18.441 C 118.7,15.12 117.822,11.733 116.533,8.278 L 115.533,8.076 C 114.867,7.941 113.778,7.986 112.266,8.211 C 110.756,8.435 108.989,8.838 106.967,9.422 C 104.945,10.005 102.334,11.161 99.133,12.888 C 95.933,14.615 92.556,16.803 89,19.45 C 82.956,17.61 74.623,15.685 64,15.685 C 53.378,15.685 45.022,17.61 38.934,19.45 C 35.378,16.802 31.989,14.626 28.767,12.921 C 25.544,11.216 22.967,10.050 21.034,9.421 C 19.1,8.793 17.311,8.389 15.667,8.21 C 14.022,8.031 12.966,7.974 12.5,8.042 C 12.034,8.109 11.689,8.188 11.467,8.277 C 10.178,11.732 9.289,15.12 8.8,18.441 C 8.311,21.761 8.2,24.677 8.466,27.189 C 8.733,29.702 9.022,31.677 9.333,33.112 C 9.645,34.548 10,35.782 10.4,36.814 C 3.467,44.845 0,54.469 0,65.686 Z M 17.067,79.925 C 17.067,72.673 19.733,66.096 25.067,60.194 C 26.667,58.393 28.523,57.029 30.634,56.105 C 32.745,55.179 35.145,54.654 37.834,54.529 C 40.523,54.404 43.089,54.429 45.534,54.604 C 47.978,54.779 51.001,55.017 54.6,55.316 C 58.2,55.617 61.312,55.767 63.934,55.767 C 66.556,55.767 69.667,55.617 73.267,55.316 C 76.868,55.017 79.889,54.779 82.334,54.604 C 84.779,54.429 87.345,54.404 90.034,54.529 C 92.723,54.654 95.134,55.179 97.267,56.105 C 99.401,57.029 101.267,58.393 102.868,60.194 C 108.201,66.096 110.868,72.673 110.868,79.925 C 110.868,84.177 110.423,87.966 109.534,91.292 C 108.645,94.619 107.523,97.407 106.167,99.657 C 104.812,101.909 102.911,103.81 100.468,105.36 C 98.023,106.911 95.656,108.111 93.368,108.961 C 91.079,109.811 88.123,110.474 84.501,110.95 C 80.878,111.424 77.634,111.712 74.767,111.812 C 71.9,111.912 68.289,111.962 63.934,111.962 C 59.578,111.962 55.978,111.912 53.134,111.812 C 50.289,111.712 47.056,111.424 43.434,110.95 C 39.812,110.474 36.856,109.811 34.567,108.961 C 32.278,108.111 29.912,106.911 27.467,105.36 C 25.023,103.809 23.122,101.909 21.767,99.657 C 20.411,97.407 19.289,94.619 18.4,91.292 C 17.512,87.966 17.067,84.177 17.067,79.925 ZM 32,76.001A8,12 2520 1 0 48,76.001A8,12 2520 1 0 32,76.001zM 80,76.001A8,12 2520 1 0 96,76.001A8,12 2520 1 0 80,76.001z"></path></g></svg>