<?xml version="1.0" standalone="yes"?>

<svg version="1.1" viewBox="0.0 0.0 127.0 120.0" fill="none" stroke="none" stroke-linecap="square" stroke-miterlimit="10" xmlns="http://www.w3.org/2000/svg" xmlns:xlink="http://www.w3.org/1999/xlink"><clipPath id="p.0"><path d="m0 0l127.0 0l0 120.0l-127.0 0l0 -120.0z" clip-rule="nonzero"></path></clipPath><g clip-path="url(#p.0)"><path fill="#000000" fill-opacity="0.0" d="m0 0l127.00787 0l0 120.04199l-127.00787 0z" fill-rule="nonzero"></path><path fill="#000000" fill-opacity="0.0" d="m-12.994751 -30.356955l384.0 0l0 48.0l-384.0 0z" fill-rule="nonzero"></path><path fill="#000000" d="m93.94275 96.01804l-36.8125 0l0 -4.4375q1.5 -0.125 4.34375 -0.375q2.84375 -0.25 3.90625 -0.75q1.875 -0.75 2.75 -2.28125q0.875 -1.53125 0.875 -3.96875l0 -31.5625l-41.6875 0l0 30.875q0 2.1875 0.71875 3.6875q0.71875 1.5 2.84375 2.625q1.0625 0.5625 3.78125 1.125q2.71875 0.5625 4.28125 0.625l0 4.4375l-36.8125 0l0 -4.4375q1.5 -0.125 4.34375 -0.375q2.8437495 -0.25 3.9062495 -0.75q1.875 -0.75 2.75 -2.28125q0.875 -1.53125 0.875 -3.96875l0 -64.0q0 -2.0 -0.8125 -3.65625q-0.8125 -1.656251 -2.8125 -2.593751q-1.6875 -0.8125 -4.0937495 -1.4375q-2.4062502 -0.625 -4.15625 -0.75l0 -4.4375l36.8125 0l0 4.4375q-1.75 0.0625 -4.28125 0.5625q-2.53125 0.5 -3.78125 0.9375q-2.125 0.75 -2.84375 2.5q-0.71875 1.750001 -0.71875 3.812501l0 27.499998l41.6875 0l0 -26.874998q0 -2.0 -0.8125 -3.65625q-0.8125 -1.656251 -2.8125 -2.593751q-1.6875 -0.8125 -4.09375 -1.4375q-2.40625 -0.625 -4.15625 -0.75l0 -4.4375l36.8125 0l0 4.4375q-1.75 0.0625 -4.28125 0.5625q-2.53125 0.5 -3.78125 0.9375q-2.125 0.75 -2.84375 2.5q-0.71875 1.750001 -0.71875 3.812501l0 63.9375q0 2.1875 0.71875 3.6875q0.71875 1.5 2.84375 2.625q1.0625 0.5625 3.78125 1.125q2.71875 0.5625 4.28125 0.625l0 4.4375z" fill-rule="nonzero"></path><path fill="#000000" fill-opacity="0.0" d="m14.703412 -12.530184l384.0 0l0 138.14174l-384.0 0z" fill-rule="nonzero"></path><path fill="#000000" d="m121.640915 113.84482l-36.8125 0l0 -4.4375q1.5 -0.125 4.34375 -0.375q2.84375 -0.25 3.90625 -0.75q1.875 -0.75 2.75 -2.28125q0.875 -1.53125 0.875 -3.96875l0 -31.5625l-41.687504 0l0 30.875q0 2.1875 0.71875 3.6875q0.71875 1.5 2.84375 2.625q1.0625 0.5625 3.78125 1.125q2.7187538 0.5625 4.281254 0.625l0 4.4375l-36.8125 0l0 -4.4375q1.5 -0.125 4.343748 -0.375q2.84375 -0.25 3.90625 -0.75q1.875 -0.75 2.75 -2.28125q0.875 -1.53125 0.875 -3.96875l0 -64.0q0 -2.0 -0.8125 -3.65625q-0.8125 -1.65625 -2.8125 -2.593752q-1.6875 -0.8125 -4.09375 -1.4375q-2.406248 -0.625 -4.156248 -0.75l0 -4.4375l36.8125 0l0 4.4375q-1.75 0.0625 -4.281254 0.5625q-2.53125 0.5 -3.78125 0.9375q-2.125 0.75 -2.84375 2.500002q-0.71875 1.75 -0.71875 3.8125l0 27.5l41.687504 0l0 -26.875q0 -2.0 -0.8125 -3.65625q-0.8125 -1.65625 -2.8125 -2.593752q-1.6875 -0.8125 -4.09375 -1.4375q-2.40625 -0.625 -4.15625 -0.75l0 -4.4375l36.8125 0l0 4.4375q-1.75 0.0625 -4.28125 0.5625q-2.53125 0.5 -3.78125 0.9375q-2.125 0.75 -2.84375 2.500002q-0.71875 1.75 -0.71875 3.8125l0 63.9375q0 2.1875 0.71875 3.6875q0.71875 1.5 2.84375 2.625q1.0625 0.5625 3.78125 1.125q2.71875 0.5625 4.28125 0.625l0 4.4375z" fill-rule="nonzero"></path></g></svg>

