<?xml version="1.0" encoding="utf-8"?> <!-- Generator: IcoMoon.io -->
<!DOCTYPE svg PUBLIC "-//W3C//DTD SVG 1.1//EN" "http://www.w3.org/Graphics/SVG/1.1/DTD/svg11.dtd">
<svg width="128" height="128" viewBox="0 0 128 128" xmlns="http://www.w3.org/2000/svg" xmlns:xlink="http://www.w3.org/1999/xlink" fill="#00000000">
<g><path fill="#000000" d="M 48,104l-16,0 L 32,48 l 16,0 L 48,104 z M 40,40c-4.418,0-8-3.582-8-8s 3.582-8, 8-8s 8,3.582, 8,8S 44.418,40, 40,40z M 104,104l-16,0 L 88,72 c0-4.418-3.582-8-8-8s-8,3.582-8,8l0,32 l-16,0 L 56,48 l 16,0 l0,9.934 C 75.3,53.401, 80.344,48, 86,48c 9.941,0, 18,8.954, 18,20 L 104,104 z"></path>
</g></svg>