<?xml version="1.0" encoding="utf-8"?> <!-- Generator: IcoMoon.io --> <!DOCTYPE svg PUBLIC "-//W3C//DTD SVG 1.1//EN" "http://www.w3.org/Graphics/SVG/1.1/DTD/svg11.dtd"> <svg width="128.00050354003906" height="128" viewBox="0 0 128.00050354003906 128" xmlns="http://www.w3.org/2000/svg" xmlns:xlink="http://www.w3.org/1999/xlink" fill="#000000"><g><path d="M 128,24.302c-4.71,2.088-9.771,3.5-15.082,4.135c 5.421-3.25, 9.586-8.396, 11.546-14.529 c-5.074,3.010-10.694,5.195-16.676,6.372c-4.79-5.104-11.615-8.293-19.168-8.293c-14.503,0-26.261,11.757-26.261,26.26 c0,2.058, 0.232,4.063, 0.68,5.985c-21.825-1.095-41.175-11.55-54.127-27.438c-2.26,3.878-3.556,8.389-3.556,13.202 c0,9.111, 4.636,17.149, 11.682,21.858c-4.305-0.137-8.354-1.318-11.894-3.285c-0.003,0.11-0.003,0.22-0.003,0.33 c0,12.723, 9.052,23.337, 21.065,25.75c-2.203,0.6-4.524,0.921-6.918,0.921c-1.692,0-3.337-0.165-4.941-0.471 c 3.342,10.432, 13.040,18.026, 24.532,18.237c-8.988,7.044-20.311,11.242-32.614,11.242c-2.12,0-4.21-0.124-6.264-0.367 c 11.621,7.451, 25.425,11.799, 40.255,11.799c 48.303,0, 74.717-40.016, 74.717-74.718c0-1.139-0.026-2.271-0.076-3.397 C 120.028,34.193, 124.48,29.568, 128,24.302z"></path></g></svg>