<?xml version="1.0" encoding="utf-8"?> <!-- Generator: IcoMoon.io --> <!DOCTYPE svg PUBLIC "-//W3C//DTD SVG 1.1//EN" "http://www.w3.org/Graphics/SVG/1.1/DTD/svg11.dtd"> <svg width="128" height="128" viewBox="0 0 128 128" xmlns="http://www.w3.org/2000/svg" xmlns:xlink="http://www.w3.org/1999/xlink" fill="#000000"><g><path d="M 16,63.999c0,18.503, 11.040,34.496, 27.054,42.072L 20.157,44.973C 17.493,50.787, 16,57.221, 16,63.999zM 96.403,61.641c0-5.779-2.132-9.78-3.957-12.893c-2.432-3.853-4.715-7.112-4.715-10.964 c0-4.297, 3.346-8.297, 8.061-8.297c 0.213,0, 0.415,0.025, 0.622,0.038C 87.875,21.903, 76.497,17.25, 64.001,17.25 c-16.77,0-31.523,8.381-40.105,21.071c 1.126,0.035, 2.188,0.057, 3.089,0.057c 5.019,0, 12.793-0.594, 12.793-0.594 c 2.586-0.148, 2.892,3.554, 0.307,3.853c0,0-2.601,0.296-5.494,0.444l 17.479,50.638l 10.505-30.682l-7.478-19.956 c-2.586-0.148-5.035-0.444-5.035-0.444c-2.588-0.149-2.284-4, 0.305-3.853c0,0, 7.925,0.594, 12.642,0.594 c 5.018,0, 12.794-0.594, 12.794-0.594c 2.588-0.148, 2.893,3.554, 0.306,3.853c0,0-2.604,0.296-5.494,0.444L 87.963,92.332 l 4.789-15.579C 94.824,70.285, 96.403,65.641, 96.403,61.641zM 64.843,68.088l-14.403,40.757c 4.302,1.232, 8.849,1.905, 13.561,1.905c 5.59,0, 10.95-0.94, 15.94-2.65 c-0.127-0.2-0.247-0.413-0.344-0.644L 64.843,68.088zM 106.12,41.572c 0.206,1.489, 0.324,3.086, 0.324,4.807c0,4.741-0.911,10.075-3.65,16.744l-14.661,41.284 C 102.403,96.303, 112,81.246, 112,63.999C 112,55.87, 109.868,48.229, 106.12,41.572zM 64,0C 28.654,0,0,28.654,0,64s 28.654,64, 64,64s 64-28.654, 64-64S 99.346,0, 64,0z M 64,120 C 33.072,120, 8,94.928, 8,64S 33.072,8, 64,8s 56,25.072, 56,56S 94.928,120, 64,120z"></path></g></svg>